<?xml version="1.0" standalone="no"?>
<!DOCTYPE svg PUBLIC "-//W3C//DTD SVG 20010904//EN"
 "http://www.w3.org/TR/2001/REC-SVG-20010904/DTD/svg10.dtd">
<svg version="1.0" xmlns="http://www.w3.org/2000/svg"
 width="128.000000pt" height="128.000000pt" viewBox="0 0 128.000000 128.000000"
 preserveAspectRatio="xMidYMid meet">
<metadata>
Created by potrace 1.10, written by Peter Selinger 2001-2011
</metadata>
<g transform="translate(0.000000,128.000000) scale(0.100000,-0.100000)"
fill="#000000" stroke="none">
<path d="M598 1215 c-6 -13 -14 -22 -18 -20 -9 6 -20 -45 -20 -94 0 -53 27
-138 47 -145 48 -19 88 107 67 213 -4 17 -10 29 -14 26 -4 -2 -12 7 -18 20 -7
14 -16 25 -22 25 -6 0 -15 -11 -22 -25z m42 -31 c20 -53 6 -184 -20 -184 -15
0 -30 54 -30 105 0 54 15 105 32 105 5 0 13 -12 18 -26z"/>
<path d="M188 1045 c-3 -14 -1 -22 5 -18 5 3 7 -3 3 -14 -8 -25 51 -95 113
-135 51 -32 73 -35 91 -13 20 24 -31 118 -92 166 -48 38 -76 51 -62 28 5 -8 1
-8 -14 0 -31 16 -39 14 -44 -14z m105 -32 c36 -28 85 -109 72 -121 -13 -13
-98 44 -128 85 -46 65 -12 87 56 36z"/>
<path d="M992 1013 c-51 -25 -132 -119 -132 -154 0 -26 3 -29 30 -29 53 0 140
54 181 112 13 17 18 28 11 24 -15 -9 -15 -1 0 24 15 23 12 25 -27 33 -19 3
-44 -1 -63 -10z m68 -28 c0 -20 -57 -83 -91 -101 -15 -7 -38 -14 -49 -14 -17
0 -20 4 -15 23 8 24 54 77 68 77 4 0 15 7 23 15 20 20 64 20 64 0z"/>
<path d="M553 920 c-56 -12 -91 -31 -136 -77 -59 -58 -79 -105 -82 -190 -1
-40 1 -73 6 -73 4 0 5 -9 2 -20 -3 -12 0 -20 6 -20 7 0 10 -4 6 -9 -3 -5 2
-17 11 -25 8 -9 12 -16 7 -16 -4 0 3 -9 17 -20 14 -10 25 -25 25 -32 0 -7 25
-28 55 -46 45 -27 62 -32 93 -27 22 3 37 1 37 -5 0 -5 7 -10 15 -10 8 0 15 5
15 10 0 6 5 10 11 10 5 0 8 -4 5 -9 -10 -16 77 9 120 34 36 21 105 95 89 95
-4 0 1 7 10 16 9 9 14 23 11 30 -3 8 -1 14 5 14 5 0 9 6 8 13 -1 6 1 20 6 30
15 34 -2 133 -31 187 -42 78 -133 141 -201 139 -21 0 -16 -4 20 -13 62 -17
124 -60 162 -115 28 -40 30 -48 27 -116 -6 -157 -69 -246 -198 -280 -108 -28
-210 14 -278 114 -23 34 -30 58 -34 113 -3 43 -8 65 -13 56 -14 -21 -10 4 7
54 8 25 31 64 50 86 36 42 123 92 160 92 13 0 26 5 29 10 3 6 5 10 3 9 -2 -1
-22 -5 -45 -9z"/>
<path d="M765 830 c-3 -5 -1 -10 4 -10 14 0 57 -43 53 -53 -1 -5 3 -5 9 -2 7
5 -1 19 -22 41 -37 38 -36 38 -44 24z"/>
<path d="M98 693 c-16 -2 -28 -8 -28 -13 0 -5 -8 -7 -17 -3 -10 3 -15 3 -11
-2 4 -4 0 -14 -9 -20 -15 -11 -15 -15 -4 -29 7 -9 20 -16 28 -16 8 0 12 -4 8
-9 -8 -15 59 -24 123 -18 141 13 161 78 31 106 -50 11 -70 12 -121 4z m131
-34 c38 -13 39 -21 5 -39 -47 -26 -184 -10 -184 21 0 26 119 39 179 18z"/>
<path d="M1007 686 c-114 -32 -91 -90 39 -103 60 -6 153 5 135 16 -8 5 -3 11
14 19 28 13 33 30 10 38 -8 4 -12 11 -8 17 4 6 0 8 -10 4 -9 -3 -17 -1 -19 4
-5 16 -110 20 -161 5z m169 -31 c19 -15 19 -15 0 -30 -18 -14 -38 -17 -96 -17
-47 0 -59 3 -81 21 l-24 19 35 10 c55 16 143 14 166 -3z"/>
<path d="M285 428 c-22 -11 -61 -40 -86 -65 -38 -36 -46 -51 -45 -76 2 -28 5
-32 29 -30 18 1 25 -2 21 -9 -4 -6 17 2 46 18 147 80 181 238 35 162z m50 -40
c-10 -33 -64 -87 -104 -104 -36 -15 -51 -11 -51 12 0 9 -5 12 -12 8 -7 -4 -11
-5 -8 -1 3 3 8 5 11 4 3 -1 19 13 34 31 29 35 88 71 118 72 14 0 17 -5 12 -22z"/>
<path d="M836 404 c-10 -26 30 -98 78 -142 44 -41 94 -73 82 -53 -5 7 3 9 25
4 31 -6 32 -5 25 21 -5 20 -3 26 5 21 14 -10 -6 29 -39 72 -53 71 -161 117
-176 77z m122 -60 c24 -20 49 -49 57 -64 13 -24 13 -30 0 -40 -18 -15 -49 3
-100 57 -72 76 -36 115 43 47z"/>
<path d="M583 288 c-13 -24 -18 -55 -18 -113 1 -74 3 -82 29 -110 27 -29 28
-29 42 -10 8 10 14 26 14 34 0 13 2 14 9 2 7 -10 11 -1 16 33 21 136 -44 252
-92 164z m55 -43 c15 -32 16 -130 2 -156 -15 -28 -37 -23 -45 9 -15 69 -1 172
23 172 5 0 14 -11 20 -25z"/>
</g>
</svg>
